<?xml version="1.0" standalone="no"?>
<!DOCTYPE svg PUBLIC "-//W3C//DTD SVG 20010904//EN"
 "http://www.w3.org/TR/2001/REC-SVG-20010904/DTD/svg10.dtd">
<svg version="1.0" xmlns="http://www.w3.org/2000/svg"
 width="1040.000000pt" height="1146.000000pt" viewBox="0 0 1040.000000 1146.000000"
 preserveAspectRatio="xMidYMid meet">

<g transform="translate(0.000000,1146.000000) scale(0.100000,-0.100000)"
fill="#000000" stroke="none">
<path d="M7122 11429 c-13 -5 -47 -11 -77 -15 -50 -5 -107 -18 -270 -63 -56
-15 -91 -18 -175 -14 -58 2 -109 5 -115 5 -66 2 -203 -20 -295 -47 -111 -32
-123 -33 -338 -39 -151 -3 -231 -2 -247 6 -20 9 -33 6 -77 -16 -74 -38 -112
-60 -129 -73 -79 -65 -140 -125 -170 -169 -20 -29 -44 -60 -53 -69 -9 -10 -27
-38 -41 -64 -29 -57 -72 -106 -250 -288 -164 -166 -223 -254 -255 -377 -18
-70 -19 -90 -10 -165 25 -202 74 -306 142 -299 39 4 48 25 15 37 -59 23 -106
281 -74 405 22 81 99 204 182 291 236 244 269 283 340 393 15 23 32 42 36 42
5 0 9 6 9 14 0 26 107 151 156 183 104 67 130 72 391 78 244 6 287 11 372 44
43 16 51 17 56 4 6 -17 23 -15 106 15 30 12 80 21 110 22 65 2 160 -9 174 -21
6 -4 17 -4 25 1 8 6 29 10 46 10 17 0 66 10 110 21 234 63 361 86 456 84 67
-1 79 -5 147 -46 41 -24 95 -64 121 -89 41 -40 96 -135 115 -197 6 -23 45 -40
64 -28 36 21 -29 180 -106 260 -23 25 -45 45 -49 45 -3 0 -20 11 -38 25 -47
38 -46 38 -118 73 -61 30 -73 32 -165 31 -54 0 -108 -4 -121 -10z"/>
<path d="M7524 11075 c-4 -8 2 -27 12 -43 22 -34 225 -256 239 -261 20 -7 173
-171 208 -223 48 -73 120 -221 140 -288 24 -80 36 -169 24 -177 -6 -3 -7 -1
-3 5 4 6 -13 22 -41 39 -27 15 -50 31 -51 35 -2 5 -8 6 -13 2 -5 -3 -9 -1 -9
5 0 6 -19 20 -42 31 -24 12 -59 30 -78 40 -19 10 -41 15 -49 12 -9 -3 -12 -1
-7 6 3 6 -3 13 -16 17 -13 4 -36 13 -53 20 -79 36 -106 44 -98 32 4 -7 0 -7
-10 2 -9 7 -17 10 -17 5 0 -4 -5 -3 -12 4 -7 7 -22 12 -33 12 -12 0 -25 3 -28
7 -4 3 -19 8 -35 9 -15 2 -43 5 -62 7 -19 2 -42 7 -50 10 -8 4 -24 5 -35 3
-11 -2 -26 1 -32 7 -9 6 -13 6 -13 -2 0 -8 -6 -9 -17 -3 -10 5 -29 8 -43 6
-21 -3 -116 -11 -170 -16 -8 0 -21 -6 -29 -12 -11 -8 -13 -8 -7 2 9 15 5 15
-31 0 -15 -6 -41 -12 -58 -13 -16 -1 -38 -5 -47 -8 -10 -4 -26 -10 -35 -14
-10 -3 -21 -7 -25 -8 -5 -2 -10 -4 -13 -5 -3 -1 -14 -4 -25 -5 -34 -4 -35 -5
-20 -16 12 -9 12 -10 -4 -5 -11 4 -23 0 -30 -9 -10 -14 -19 -14 -60 -5 -85 19
-185 79 -267 161 -41 41 -81 73 -88 71 -6 -2 2 17 18 43 43 67 86 175 126 315
40 140 43 170 15 195 -19 17 -22 17 -37 3 -9 -10 -21 -52 -29 -105 -23 -155
-110 -372 -178 -446 -28 -31 -32 -47 -15 -64 9 -9 19 -8 40 3 26 13 29 13 29
-1 0 -9 8 -19 18 -22 9 -4 49 -34 87 -68 41 -35 104 -77 152 -100 83 -40 107
-61 56 -49 -35 9 -89 39 -127 71 -22 18 -31 21 -42 12 -34 -28 -4 -80 59 -102
9 -4 23 -19 29 -34 61 -142 210 -267 333 -281 l42 -4 -3 -77 c-11 -299 -17
-380 -28 -384 -132 -53 -230 -93 -266 -109 -67 -30 -384 -144 -425 -153 -11
-2 -47 -15 -80 -29 -33 -14 -72 -26 -86 -26 -15 0 -55 -9 -90 -21 -35 -11 -82
-20 -104 -20 -22 0 -45 -4 -51 -10 -8 -6 -16 4 -28 34 -28 74 -104 127 -182
127 -93 0 -137 -42 -137 -129 0 -33 -4 -39 -30 -49 -38 -14 -53 -4 -67 48 -8
28 -29 56 -78 100 -85 78 -98 100 -107 169 -3 31 -12 81 -20 111 -11 46 -26
266 -29 424 l-1 39 75 27 c79 29 222 104 279 147 18 14 58 39 88 55 118 63
208 141 437 375 141 145 226 249 226 275 0 18 -28 38 -54 38 -9 0 -16 -5 -16
-11 0 -34 -185 -240 -392 -436 -75 -72 -177 -147 -231 -171 -15 -6 -51 -29
-80 -51 -29 -21 -73 -49 -97 -61 -25 -13 -62 -34 -83 -48 -39 -26 -120 -59
-167 -69 -14 -3 -36 -15 -50 -28 -14 -12 -40 -32 -59 -45 l-34 -24 7 77 c4 42
16 122 26 179 18 91 18 104 5 117 -13 14 -17 13 -31 -1 -25 -25 -64 -193 -70
-298 -8 -150 24 -182 113 -114 l48 37 11 -199 c11 -209 33 -360 66 -457 11
-32 18 -60 16 -61 -1 -2 -13 -9 -25 -15 -90 -46 -55 -264 51 -326 24 -14 50
-25 59 -25 27 0 9 -25 -52 -73 -116 -90 -155 -245 -92 -368 38 -76 75 -115
147 -155 55 -31 69 -34 150 -36 101 -3 182 18 225 59 25 23 59 24 59 1 0 -14
37 -59 59 -72 60 -36 101 -68 101 -80 0 -29 110 -199 156 -241 6 -5 21 -25 33
-42 12 -18 48 -49 79 -70 31 -21 59 -40 62 -43 10 -10 110 -15 333 -15 125 0
227 -2 227 -5 0 -3 23 -34 51 -69 28 -35 46 -61 41 -57 -15 9 -53 -44 -57 -79
0 -5 -6 -20 -13 -32 -7 -12 -12 -30 -12 -41 0 -11 -22 -64 -49 -118 -32 -65
-60 -142 -81 -224 -17 -69 -33 -127 -36 -129 -3 -3 -12 -6 -22 -7 -9 -2 -18
-8 -20 -13 -21 -62 -182 -254 -356 -425 -110 -107 -123 -116 -170 -118 -20 -1
-39 -5 -41 -8 -5 -8 22 -62 85 -174 23 -40 30 -63 24 -73 -13 -20 -181 -93
-215 -93 -15 0 -31 5 -34 10 -4 6 -11 8 -16 4 -5 -3 -30 6 -55 20 -26 14 -50
26 -55 26 -4 0 -35 18 -68 40 -33 22 -64 40 -68 40 -5 0 -33 18 -63 40 -30 23
-75 55 -98 73 -74 54 -176 162 -190 199 -7 20 -35 73 -62 119 -28 46 -60 102
-73 123 -12 22 -32 49 -45 60 -13 12 -52 49 -87 84 -35 34 -72 62 -82 62 -11
0 -28 7 -39 15 -10 8 -31 15 -46 15 -20 0 -25 4 -22 18 6 20 -55 147 -86 180
-61 64 -193 107 -318 103 -85 -2 -197 -58 -242 -121 -11 -16 -30 -32 -42 -36
-12 -3 -26 -11 -32 -16 -6 -5 -31 -23 -55 -40 -84 -61 -129 -215 -86 -299 25
-48 52 -81 78 -94 23 -11 29 -39 14 -66 -6 -9 -7 -32 -3 -53 13 -71 128 -118
224 -93 l53 14 25 -31 c15 -17 49 -43 77 -57 l50 -26 -48 -7 c-55 -7 -209 -57
-266 -87 -105 -53 -147 -158 -97 -239 11 -19 22 -53 23 -76 6 -105 98 -171
156 -113 19 19 24 20 45 8 22 -11 31 -10 79 14 l55 27 0 -43 c0 -38 26 -105
51 -131 13 -14 87 -8 120 9 15 8 48 28 72 45 53 36 51 35 86 10 33 -23 176
-64 196 -56 8 3 42 -13 75 -36 57 -38 65 -40 128 -39 66 1 70 0 143 -52 74
-51 129 -97 258 -210 36 -32 87 -73 114 -90 26 -18 50 -40 53 -50 3 -10 12
-16 19 -13 7 2 22 -4 33 -14 11 -10 33 -21 50 -23 17 -3 36 -8 42 -12 6 -4 68
-27 138 -51 107 -38 137 -45 192 -43 67 2 178 21 233 39 64 20 169 50 179 50
7 0 8 -50 4 -148 -3 -81 -6 -162 -6 -181 1 -23 -9 -49 -30 -77 -23 -33 -30
-53 -30 -91 0 -26 -10 -73 -21 -103 -12 -30 -28 -91 -35 -134 -18 -109 -29
-124 -136 -171 -82 -36 -107 -45 -168 -61 -30 -8 -78 -26 -107 -39 -28 -14
-57 -25 -63 -25 -6 0 -41 -14 -78 -31 -37 -17 -94 -35 -127 -40 -33 -6 -89
-18 -125 -29 -79 -22 -172 -46 -262 -65 -37 -9 -83 -24 -101 -34 l-34 -19 -6
167 c-8 219 0 349 22 355 14 4 309 0 321 -4 3 -1 43 -1 90 0 206 7 363 2 587
-16 61 -5 74 -3 79 10 3 9 12 16 19 16 11 0 13 40 12 194 l-2 193 -30 12 c-16
6 -109 16 -205 22 -123 7 -178 14 -185 23 -6 8 -35 17 -65 21 -30 4 -82 16
-115 26 -33 10 -73 19 -88 19 -15 0 -42 6 -60 13 -18 8 -59 15 -92 16 -67 2
-121 16 -149 36 -21 16 -48 137 -44 205 2 44 2 45 -42 60 -31 11 -62 14 -100
9 -30 -3 -68 -2 -85 3 -16 4 -52 8 -80 8 -48 0 -51 2 -68 38 -30 64 -61 116
-89 152 -27 34 -29 35 -105 36 -86 2 -184 11 -223 21 -28 6 -279 11 -1025 17
-275 2 -504 5 -510 7 -5 1 -43 -3 -83 -10 -82 -15 -96 -9 -107 39 -3 16 -13
34 -21 41 -15 12 -74 124 -74 139 0 5 -10 26 -23 47 -31 53 -97 204 -97 223 0
8 -9 26 -20 40 -11 14 -20 29 -20 34 0 5 -11 32 -24 60 -13 28 -35 77 -50 108
-14 32 -41 91 -60 130 -18 40 -37 84 -41 98 -9 31 -123 285 -170 379 -19 38
-35 72 -35 75 0 3 -22 52 -49 108 -27 57 -70 157 -96 223 -26 66 -60 148 -76
183 -16 35 -29 69 -29 75 0 7 -11 30 -23 52 -13 22 -47 103 -77 180 -29 77
-89 228 -133 335 -44 107 -94 238 -112 290 -18 52 -49 132 -69 178 -20 46 -37
98 -38 115 -4 60 -23 72 -113 71 -44 0 -96 5 -116 12 -20 7 -81 18 -135 24
-55 6 -117 16 -140 20 -22 5 -84 12 -137 16 l-96 7 -35 -34 c-35 -35 -63 -53
-156 -101 -30 -16 -58 -34 -62 -41 -4 -7 -8 -37 -8 -67 0 -48 4 -59 28 -82 19
-17 43 -65 71 -140 23 -62 47 -121 52 -131 6 -10 23 -51 39 -90 15 -40 56
-134 89 -210 34 -75 61 -142 61 -147 0 -5 41 -93 90 -194 50 -102 90 -187 90
-190 0 -7 72 -158 181 -382 49 -99 89 -184 89 -188 0 -5 30 -70 67 -145 36
-75 113 -233 171 -351 57 -118 206 -420 330 -670 124 -250 231 -471 237 -490
20 -55 51 -60 132 -21 38 18 76 37 86 42 28 15 47 -7 47 -56 0 -67 2 -66 -385
-61 -187 3 -358 6 -380 7 -22 1 -58 -3 -80 -9 -100 -26 -167 -42 -265 -61 -58
-12 -130 -28 -160 -37 -30 -8 -68 -17 -85 -18 -80 -9 -146 -22 -340 -71 -253
-64 -255 -64 -287 -107 -25 -33 -25 -34 -17 -158 4 -69 6 -150 5 -180 -3 -58
12 -103 38 -113 9 -4 18 -2 22 4 6 11 52 9 69 -2 8 -6 169 3 260 14 19 2 20
-5 26 -108 3 -60 3 -292 1 -515 -6 -765 -5 -1365 3 -1610 11 -306 12 -876 2
-1120 -5 -102 -8 -192 -9 -200 0 -8 3 -32 7 -52 6 -29 4 -38 -6 -38 -18 0 -43
-56 -69 -155 -11 -41 -27 -92 -36 -114 -8 -21 -14 -54 -12 -73 3 -37 -24 -32
233 -43 362 -14 476 -13 514 6 21 10 49 21 64 24 33 9 46 44 23 60 -9 7 -16
20 -16 30 0 10 -6 26 -13 34 -17 20 -44 94 -53 146 -4 21 -15 46 -25 55 -35
28 -37 107 -52 1715 -3 253 -6 570 -7 705 -6 506 14 1219 34 1221 53 6 69 9
79 17 13 11 85 20 200 26 l77 4 0 -211 c1 -117 3 -342 5 -502 3 -159 7 -508
10 -775 5 -477 13 -758 21 -772 3 -4 7 -204 9 -445 3 -241 7 -489 10 -552 4
-105 3 -118 -19 -160 -39 -75 -58 -143 -44 -152 16 -10 194 -17 313 -12 22 1
87 2 145 3 l105 1 14 -31 c22 -51 59 -88 116 -114 81 -39 146 -49 255 -42 52
4 136 9 185 11 128 7 248 16 255 20 3 2 61 11 130 20 79 11 151 27 195 45 39
15 108 40 155 55 47 15 111 41 142 56 32 16 62 29 69 29 6 0 25 10 41 22 33
23 52 20 143 -24 22 -11 51 -22 65 -24 13 -3 29 -9 35 -14 6 -5 24 -11 41 -14
17 -3 50 -13 74 -21 23 -8 48 -15 56 -15 7 0 25 -5 41 -12 38 -15 41 -16 97
-28 27 -5 55 -15 62 -21 8 -6 14 -8 14 -5 0 4 9 2 21 -4 11 -7 33 -13 49 -15
15 -2 53 -11 84 -20 76 -22 107 -17 125 19 12 26 12 31 -5 43 -10 7 -29 13
-43 13 -27 0 -84 16 -156 43 -43 16 -61 21 -240 68 -145 38 -176 48 -291 92
-49 19 -143 51 -209 72 -178 55 -320 119 -452 203 -23 15 -73 46 -110 69 -37
23 -80 57 -95 77 -15 19 -48 45 -74 57 -50 26 -100 69 -128 111 -17 27 -17 29
3 71 27 55 50 76 133 122 72 39 215 75 300 75 l47 0 10 -53 c6 -28 12 -116 13
-194 3 -140 3 -142 -19 -148 -19 -4 -23 -12 -23 -43 0 -31 6 -41 38 -63 20
-14 62 -31 92 -38 47 -12 121 -41 182 -72 10 -5 24 -9 31 -9 8 0 36 -12 63
-27 114 -61 182 -91 227 -97 26 -4 71 -18 100 -32 29 -13 61 -24 72 -24 11 0
33 -7 49 -15 15 -8 36 -15 45 -15 9 1 75 -18 147 -42 125 -41 132 -45 143 -76
13 -33 54 -62 91 -62 12 0 35 7 51 16 l31 15 -5 -68 c-6 -89 -49 -270 -77
-323 -9 -19 48 -70 118 -106 45 -23 56 -24 242 -24 107 0 222 -2 255 -5 55 -5
63 -3 88 20 30 29 35 65 13 107 -8 15 -17 42 -21 60 -4 18 -12 39 -18 46 -8
10 -2 12 27 10 51 -3 73 20 60 64 -7 20 -7 46 -2 67 11 39 -6 322 -24 414 -9
48 -8 60 4 75 23 26 43 109 54 227 4 42 18 116 41 210 12 54 24 184 18 220 -6
41 -29 75 -51 75 -22 0 -32 30 -23 69 14 63 102 317 113 328 3 4 6 -14 6 -38
4 -348 6 -374 41 -465 4 -12 20 -28 36 -36 95 -50 131 -68 154 -76 l25 -10
-32 -163 c-18 -90 -35 -200 -39 -244 -8 -109 -21 -193 -57 -376 l-30 -156 34
-49 c30 -42 41 -50 84 -59 27 -6 80 -11 117 -11 l69 1 -7 -40 c-3 -22 -10 -42
-15 -45 -17 -11 -41 -97 -47 -171 -5 -74 -5 -76 23 -103 16 -15 63 -44 104
-63 102 -49 154 -49 245 -3 85 44 93 56 75 110 -11 34 -12 60 -2 143 31 268
64 497 127 898 14 86 25 160 25 164 0 7 52 2 130 -11 14 -2 147 -9 295 -14
149 -5 306 -12 350 -14 44 -3 128 -6 186 -7 102 -1 106 -2 102 -23 -6 -39 -43
-538 -43 -585 0 -26 5 -52 12 -59 9 -9 7 -13 -5 -18 -43 -16 5 -133 67 -163
64 -31 250 -20 302 17 31 22 39 68 20 113 -8 20 -13 39 -10 41 3 3 7 131 9
284 3 154 7 304 11 334 l5 55 130 1 c71 0 129 -1 129 -4 0 -2 6 -50 14 -106
20 -135 25 -220 27 -415 1 -90 5 -180 10 -201 5 -20 15 -106 24 -191 17 -164
18 -171 34 -263 8 -48 18 -68 48 -99 57 -59 106 -76 234 -82 106 -5 113 -5
164 21 60 31 102 89 91 127 -4 12 -9 51 -12 87 -3 36 -9 77 -14 93 -10 31 -36
321 -44 497 -4 63 -8 131 -11 150 -2 19 -7 58 -10 85 -4 28 -8 66 -11 85 -10
74 -13 108 -20 190 l-7 86 27 12 c15 7 36 12 46 12 42 0 255 61 302 86 14 8
33 14 42 14 23 0 93 46 106 69 5 11 10 30 10 42 0 27 45 184 64 220 8 16 10
33 4 49 -5 14 -4 36 2 54 5 17 16 74 24 126 8 52 19 113 25 135 5 22 13 78 17
125 3 47 12 113 20 146 12 54 20 98 40 219 3 17 9 46 14 65 5 19 9 55 9 80 -1
25 4 63 10 85 6 23 13 65 15 95 6 78 54 383 72 460 8 36 19 90 24 120 5 30 14
78 19 105 6 28 16 77 22 110 6 33 18 94 27 135 9 41 17 80 18 85 1 6 9 38 18
73 34 132 48 188 51 202 1 8 23 98 48 200 24 102 52 219 62 260 9 41 27 111
40 155 13 44 40 143 60 220 20 77 49 178 64 225 16 47 35 112 45 145 80 293
172 597 201 660 31 71 67 197 81 290 8 55 22 132 31 170 25 110 29 301 8 364
-28 85 -65 142 -136 212 -57 55 -80 71 -141 92 -40 14 -112 39 -160 56 -117
41 -117 41 -320 47 -147 5 -180 4 -192 -8 -9 -10 -56 -19 -128 -26 -152 -16
-174 -23 -277 -93 -113 -75 -155 -123 -221 -253 -30 -58 -57 -103 -61 -101 -3
3 -9 19 -13 36 -8 42 -90 210 -134 278 -55 83 -202 221 -237 221 -7 0 -18 7
-25 15 -7 8 -21 15 -31 15 -17 0 -107 38 -119 50 -3 3 -16 10 -30 16 -14 7
-50 24 -81 38 -31 14 -60 26 -64 26 -5 0 -27 8 -49 19 -23 10 -49 21 -58 24
-10 4 -24 21 -31 39 -8 18 -28 48 -46 67 -17 18 -31 39 -31 47 0 8 -4 14 -8
14 -4 0 -8 9 -9 21 -2 28 -21 49 -44 49 -31 0 -96 167 -84 219 4 18 28 46 71
79 35 29 68 52 73 52 4 0 16 9 26 20 12 13 25 18 38 14 12 -4 17 -2 13 4 -4 6
13 24 36 41 162 113 353 373 413 561 34 107 50 263 36 345 -21 120 -50 322
-56 390 -7 77 -25 183 -50 289 -9 38 -15 86 -14 107 2 20 -2 43 -8 51 -6 7
-18 40 -27 74 -20 76 -36 115 -93 229 -55 108 -80 138 -307 369 -97 98 -183
191 -192 207 -11 22 -22 29 -45 29 -17 0 -32 -6 -35 -15z m-2 -1527 l108 -43
0 -42 c0 -30 -6 -49 -20 -63 -16 -16 -18 -24 -9 -47 12 -32 4 -181 -13 -253
-17 -68 -74 -174 -113 -212 -38 -35 -62 -45 -111 -47 -22 -1 -34 -8 -42 -25
-10 -23 -9 -25 21 -32 18 -4 47 -6 66 -5 29 2 32 0 22 -13 -10 -11 -10 -20 -1
-37 11 -19 9 -25 -11 -40 -13 -10 -27 -19 -31 -19 -3 0 -4 -9 -1 -19 5 -21 39
-35 49 -20 3 5 14 9 24 9 16 0 18 -5 14 -30 -6 -25 -3 -30 14 -30 11 0 22 -7
26 -15 3 -8 1 -15 -4 -15 -14 0 -12 -34 2 -48 7 -7 19 -12 28 -12 23 0 58 -40
62 -70 2 -14 14 -30 28 -37 14 -7 20 -13 13 -13 -6 0 -15 -10 -19 -22 -4 -13
-17 -36 -30 -51 -37 -44 -33 -122 11 -232 19 -48 40 -95 45 -105 8 -15 -5 -29
-87 -90 -54 -40 -129 -89 -168 -110 -234 -124 -341 -172 -424 -191 -32 -7 -37
-5 -75 38 -23 25 -47 56 -54 69 -11 21 -9 25 23 50 58 44 44 86 -21 59 -20 -8
-51 -15 -69 -15 -17 0 -35 -3 -39 -7 -3 -4 -12 -8 -19 -9 -7 -1 -47 -9 -90
-19 -57 -13 -108 -16 -195 -13 -113 4 -120 5 -192 43 -41 21 -79 45 -84 54 -5
9 -27 34 -47 56 -102 108 -159 187 -159 221 0 6 28 16 63 22 106 18 140 28
202 58 33 16 62 32 65 35 3 4 22 14 43 23 21 8 81 51 134 93 52 43 104 83 115
89 32 19 49 51 42 79 -7 29 -14 35 -50 41 -30 5 -55 -11 -48 -31 11 -28 -149
-161 -265 -220 -124 -61 -174 -76 -275 -79 -120 -3 -127 -1 -185 54 l-50 48
23 58 c24 59 24 85 0 105 -17 14 -14 18 -47 -52 -55 -115 -145 -174 -267 -174
-63 0 -84 5 -133 29 -107 53 -154 134 -144 251 5 70 23 111 68 151 66 62 118
115 146 151 34 45 73 123 73 147 0 9 8 16 18 16 13 0 25 -16 40 -53 26 -63
123 -170 172 -190 50 -21 98 -4 121 43 28 57 42 115 37 154 l-4 35 56 11 c30
6 70 16 87 21 18 6 46 12 62 14 43 6 107 23 176 49 33 12 85 30 115 40 30 9
75 25 100 36 25 10 79 31 120 45 82 29 87 31 175 70 33 14 86 35 118 46 31 11
85 33 119 49 60 29 78 31 78 5 0 -16 27 -28 35 -15 4 6 21 10 38 10 18 0 43 7
55 16 13 9 26 13 29 10 11 -11 33 16 43 53 12 42 80 125 80 97 0 -9 7 -19 15
-23 19 -7 44 23 45 55 0 12 6 22 12 22 7 0 61 -19 120 -42z m-489 -64 c5 -27
3 -33 -15 -37 -18 -5 -20 -2 -14 25 3 17 6 42 7 57 0 23 1 24 8 6 4 -11 11
-34 14 -51z m1234 -121 c-3 -10 -5 -4 -5 12 0 17 2 24 5 18 2 -7 2 -21 0 -30z
m10 -130 c-2 -16 -4 -3 -4 27 0 30 2 43 4 28 2 -16 2 -40 0 -55z m-2571 -121
c29 -28 45 -58 62 -110 22 -69 22 -73 6 -134 -17 -67 -26 -78 -55 -71 -34 9
-133 126 -148 173 -7 25 -17 53 -22 62 -12 24 -11 75 1 99 9 15 22 19 64 19
48 0 57 -4 92 -38z m-397 -13 c16 -19 34 -52 42 -74 7 -22 19 -47 26 -56 10
-12 8 -24 -13 -65 -30 -56 -44 -74 -44 -56 0 7 -11 12 -25 12 -55 0 -135 109
-135 185 0 20 7 49 15 66 15 27 19 29 61 26 37 -4 51 -11 73 -38z m-4374 -344
c39 -3 95 -10 125 -15 68 -12 232 -40 285 -49 22 -3 50 -13 63 -21 29 -19 68
-103 128 -277 26 -75 54 -150 64 -167 10 -17 23 -49 30 -71 6 -22 23 -64 36
-93 13 -29 24 -57 24 -62 0 -5 6 -24 14 -42 40 -95 69 -168 86 -218 18 -53 25
-69 59 -141 17 -37 31 -70 31 -75 1 -5 9 -27 20 -49 11 -22 19 -44 20 -48 0
-4 8 -27 19 -50 10 -23 46 -107 80 -187 34 -80 80 -182 102 -226 21 -45 39
-84 39 -87 0 -4 27 -60 59 -126 32 -65 62 -129 66 -142 4 -13 16 -44 27 -69
11 -25 24 -54 28 -65 8 -22 153 -341 176 -389 8 -16 14 -35 14 -43 0 -7 11
-34 24 -60 14 -27 38 -77 54 -113 17 -36 42 -91 56 -122 14 -31 26 -60 26 -63
0 -4 13 -35 29 -69 36 -77 32 -114 -15 -156 -19 -16 -47 -32 -62 -36 -58 -13
-178 -57 -193 -71 -9 -8 -30 -18 -45 -22 -22 -6 -28 -13 -27 -29 6 -52 -26
-13 -79 96 -32 64 -64 128 -72 142 -8 14 -62 124 -120 245 -57 121 -153 321
-214 445 -98 203 -145 303 -212 455 -45 100 -82 181 -115 245 -18 36 -47 99
-64 140 -45 105 -42 99 -119 265 -80 172 -140 314 -154 364 -6 19 -20 57 -33
85 -24 54 -77 194 -127 336 -17 47 -34 90 -39 96 -11 13 -46 100 -86 209 -14
39 -34 89 -44 113 -11 23 -28 61 -38 85 -61 136 -63 148 -23 142 15 -2 59 -7
97 -10z m-128 -195 c33 -80 72 -179 88 -220 15 -41 42 -109 60 -150 18 -41 42
-102 53 -135 59 -173 229 -593 310 -765 29 -63 85 -186 123 -272 38 -87 78
-172 89 -190 16 -28 62 -130 163 -362 12 -28 72 -151 133 -275 189 -383 394
-810 394 -821 0 -4 7 -21 15 -36 23 -44 18 -59 -25 -88 -46 -30 -70 -33 -70
-8 0 10 -104 227 -231 483 -127 255 -245 493 -261 529 -16 36 -73 153 -125
260 -145 296 -188 387 -232 485 -21 50 -78 170 -125 268 -48 98 -96 203 -108
235 -11 31 -25 62 -30 69 -18 23 -125 249 -163 343 -21 52 -53 127 -71 167
-18 40 -40 94 -49 120 -9 26 -20 53 -26 59 -5 6 -27 60 -50 120 -22 60 -57
141 -78 180 l-37 71 49 29 c27 16 65 39 85 51 29 17 40 20 48 10 6 -7 38 -77
71 -157z m6939 -705 c20 -30 18 -33 -33 -50 -38 -13 -38 -13 -47 16 -7 24 -6
32 10 44 28 21 52 18 70 -10z m74 -95 c0 -5 9 -10 19 -10 11 0 26 -8 33 -18
27 -37 157 -102 203 -102 11 0 49 -18 83 -40 33 -22 64 -40 67 -40 25 0 160
-114 181 -152 12 -22 83 -105 112 -131 12 -11 22 -24 22 -28 0 -4 18 -33 39
-65 42 -63 94 -194 106 -266 9 -57 41 -216 60 -303 36 -163 60 -312 69 -425
l6 -65 -26 70 c-34 96 -64 209 -64 243 0 16 -9 55 -20 87 -11 32 -20 67 -20
77 0 21 -78 257 -90 273 -4 6 -11 21 -15 35 -4 14 -15 36 -25 50 -9 14 -25 49
-35 79 -10 30 -33 74 -51 98 -18 24 -37 49 -41 56 -5 7 -24 24 -44 39 -20 15
-43 42 -52 60 -9 18 -34 53 -56 76 -23 24 -41 47 -41 52 0 4 -15 15 -34 24
-19 9 -57 34 -85 56 -28 22 -53 40 -57 40 -3 0 -18 9 -33 19 -15 11 -52 29
-82 41 -30 12 -72 30 -95 41 -22 10 -45 19 -51 19 -14 0 -83 64 -83 77 0 5 19
16 43 25 51 20 57 21 57 8z m-822 -281 c2 -19 -4 -28 -25 -39 -15 -8 -47 -27
-71 -43 -44 -29 -67 -28 -59 4 3 10 1 22 -4 25 -16 10 12 35 66 61 62 29 89
27 93 -8z m902 -138 c0 -27 -27 -51 -58 -51 -14 0 -42 -5 -61 -11 -107 -33
-138 -59 -218 -179 -20 -30 -39 -57 -43 -60 -4 -3 -14 -19 -23 -37 -9 -17 -22
-37 -30 -45 -20 -21 -77 -117 -77 -131 0 -6 -7 1 -15 17 -20 38 -19 72 3 88 9
7 58 73 107 147 145 215 159 227 310 256 17 3 41 7 54 10 13 2 26 7 29 10 11
11 22 4 22 -14z m-1033 -103 c-22 -46 -59 -113 -83 -149 -24 -37 -44 -74 -44
-83 0 -23 -28 -76 -40 -76 -13 0 -13 0 10 88 42 164 84 246 142 277 24 13 46
24 49 25 4 0 -12 -37 -34 -82z m-2381 -74 c77 -16 174 -59 174 -78 0 -5 6 -17
14 -25 7 -9 20 -37 29 -63 l15 -47 -23 11 c-14 6 -31 7 -42 2 -10 -5 -54 -9
-98 -9 -56 0 -89 -5 -110 -17 -105 -60 -165 -70 -215 -36 -107 73 -27 228 137
267 21 5 39 9 39 10 1 1 37 -6 80 -15z m-364 -250 c29 -56 91 -94 154 -94 l48
0 -31 -22 c-17 -13 -52 -40 -77 -61 -25 -21 -49 -36 -54 -33 -6 3 -16 -1 -23
-10 -15 -18 -74 -16 -105 3 -33 21 -58 85 -49 130 10 55 45 121 80 151 l30 25
3 -24 c1 -13 12 -42 24 -65z m661 -47 c23 -13 54 -28 70 -33 40 -13 164 -115
177 -145 6 -15 20 -36 30 -47 10 -10 27 -37 38 -58 54 -108 105 -200 123 -222
10 -14 19 -30 19 -35 0 -17 72 -87 90 -87 8 0 58 -32 110 -71 52 -39 113 -80
135 -91 22 -12 58 -33 80 -48 22 -15 47 -30 55 -33 8 -4 29 -16 45 -26 24 -16
49 -20 127 -20 53 -1 99 3 102 8 4 5 25 18 49 29 130 62 174 83 188 93 12 9
26 4 66 -25 28 -20 53 -36 57 -36 4 0 28 -16 53 -35 25 -19 51 -35 57 -35 6 0
16 -8 23 -18 10 -16 3 -24 -55 -62 -194 -126 -332 -147 -557 -85 -88 24 -177
73 -411 222 -10 7 -44 26 -74 41 -79 41 -148 79 -205 113 -27 16 -66 37 -85
45 -19 8 -44 19 -55 24 -29 13 -145 47 -185 55 -58 11 -71 16 -65 26 3 5 -5
28 -19 51 -27 48 -51 148 -42 182 11 45 -14 60 -105 63 -46 1 -95 7 -109 14
-102 47 -120 65 -120 116 1 52 18 79 76 119 48 33 50 33 162 34 100 0 118 -3
155 -23z m2555 -96 c17 -28 27 -53 21 -56 -5 -4 -9 -14 -9 -24 0 -10 -11 -30
-24 -46 l-24 -28 -31 66 c-33 69 -37 82 -22 72 6 -3 16 5 23 17 12 23 14 29
17 49 2 17 16 3 49 -50z m-326 -79 c-32 -50 -76 -103 -100 -123 -103 -80 -104
-81 -93 -129 5 -23 8 -51 6 -61 -4 -19 -77 -123 -95 -134 -6 -4 2 -23 21 -50
35 -49 34 -55 -26 -105 -22 -19 -59 -52 -82 -74 -40 -37 -71 -45 -43 -10 9 9
13 35 11 65 -10 177 1 320 31 389 13 29 54 78 118 141 77 74 117 105 182 137
45 23 92 42 105 42 20 0 18 -7 -35 -88z m-432 46 c-19 -82 -36 -123 -67 -155
-18 -19 -35 -45 -39 -57 -8 -25 -112 -166 -123 -166 -4 0 -31 -22 -59 -49 -64
-62 -96 -71 -130 -37 l-25 24 119 120 c65 65 164 171 219 235 55 63 103 116
106 116 4 1 3 -14 -1 -31z m602 -29 c6 -17 21 -51 34 -75 l24 -45 -39 -52
c-21 -29 -53 -78 -71 -109 -17 -32 -35 -58 -40 -58 -4 0 -13 -14 -20 -30 -7
-17 -18 -34 -25 -38 -11 -7 -69 -102 -108 -179 l-18 -35 -39 53 c-50 66 -56
85 -36 112 51 69 80 119 149 249 61 115 148 238 169 238 5 0 14 -14 20 -31z
m-2868 -20 c3 -17 20 -44 37 -60 l31 -29 -45 -44 c-42 -40 -103 -72 -152 -78
-31 -3 -95 32 -95 52 0 46 20 70 84 101 36 17 77 44 92 60 35 36 40 36 48 -2z
m206 -155 c19 -3 44 -10 55 -15 11 -5 31 -11 45 -12 22 -4 27 -13 43 -80 12
-48 28 -86 44 -103 13 -14 22 -28 19 -31 -2 -2 -24 -1 -49 2 -47 7 -57 20 -57
74 0 25 -25 61 -43 61 -5 0 -29 -9 -52 -21 l-42 -21 -51 22 c-59 26 -70 57
-28 80 14 7 27 24 31 37 5 20 10 24 28 19 12 -4 38 -9 57 -12z m23 -211 c-7
-2 -21 -2 -30 0 -10 3 -4 5 12 5 17 0 24 -2 18 -5z m87 -84 c33 -12 73 -17
238 -34 29 -3 60 -9 70 -14 26 -14 66 -28 73 -27 3 0 13 -5 21 -12 9 -7 24
-14 35 -16 10 -2 46 -20 78 -40 33 -20 64 -36 68 -36 10 0 129 -71 137 -81 3
-3 16 -10 30 -14 24 -8 100 -53 110 -66 3 -4 29 -19 58 -35 73 -40 83 -46 119
-71 17 -13 34 -23 38 -23 9 0 62 -23 142 -62 34 -17 66 -27 72 -23 6 3 11 3
11 -2 0 -9 162 -8 222 2 99 17 240 74 308 125 19 14 62 42 94 60 59 35 149
118 217 200 l36 42 71 -143 c93 -186 161 -293 223 -349 l50 -45 -63 -46 c-35
-25 -83 -59 -108 -75 -25 -16 -47 -31 -50 -34 -3 -3 -36 -26 -75 -51 -106 -69
-201 -119 -226 -119 -12 0 -32 -9 -43 -19 -12 -11 -64 -31 -116 -45 -52 -13
-108 -30 -125 -36 -16 -6 -77 -14 -135 -17 -104 -5 -106 -5 -238 40 -98 33
-154 59 -210 96 -41 28 -81 51 -89 51 -7 0 -13 5 -13 10 0 6 -8 14 -17 17 -10
4 -57 39 -104 77 -47 39 -105 85 -130 101 -24 17 -73 59 -107 95 l-64 65 -77
6 c-106 9 -140 21 -186 63 -22 21 -53 45 -70 53 -38 20 -56 43 -49 65 6 20 0
24 -49 33 -33 6 -39 5 -43 -13 -3 -11 -24 -27 -47 -38 -23 -10 -63 -32 -88
-50 -99 -69 -152 -82 -163 -41 -17 63 0 111 60 172 64 65 155 129 183 130 19
0 36 29 28 49 -17 43 -134 -14 -254 -124 -54 -49 -157 -110 -188 -110 -9 0
-20 12 -26 28 -15 39 4 92 49 137 39 39 138 101 175 111 26 6 63 32 56 39 -3
2 -32 5 -64 6 -62 2 -76 -4 -170 -72 -43 -31 -96 -105 -110 -153 -10 -34 -10
-49 0 -79 12 -34 11 -38 -5 -47 -68 -37 -102 39 -62 137 26 64 115 151 190
184 34 15 62 30 62 33 0 3 -17 2 -37 0 -48 -7 -133 -44 -133 -59 0 -6 -25 -23
-55 -38 -33 -16 -60 -37 -67 -52 -14 -31 -28 -32 -28 -3 0 45 33 92 80 115 92
45 136 61 185 68 28 4 70 11 95 14 54 8 166 3 200 -10z m4197 -201 c-3 -7 -5
-2 -5 12 0 14 2 19 5 13 2 -7 2 -19 0 -25z m-3964 -283 l32 -25 -57 19 c-31
11 -66 25 -78 31 l-22 12 28 19 29 19 18 -25 c10 -14 33 -36 50 -50z m-1906
-326 c-11 -46 -11 -47 -59 -52 -27 -4 -60 -2 -74 3 -14 6 -36 7 -49 4 -37 -9
-38 12 -3 51 31 36 34 37 82 31 28 -4 65 -2 81 2 17 5 31 9 31 8 1 -1 -3 -22
-9 -47z m270 41 l43 0 0 -56 0 -57 -87 8 c-49 4 -105 8 -125 7 -42 0 -43 3
-31 72 l6 39 75 -7 c41 -3 95 -6 119 -6z m328 -2 c2 -2 6 -22 10 -46 l7 -43
-54 2 c-29 0 -84 -2 -121 -6 l-68 -8 2 39 c3 75 -2 72 116 68 58 -2 107 -5
108 -6z m317 -40 c3 -24 3 -46 1 -50 -2 -5 -56 -8 -119 -8 -114 0 -115 0 -124
26 -6 14 -10 36 -10 48 0 23 2 23 124 25 l124 2 4 -43z m203 32 l91 0 13 -37
c8 -21 16 -43 18 -48 3 -10 -66 -11 -202 -2 -48 3 -50 5 -55 38 -8 47 -2 62
24 55 11 -3 62 -6 111 -6z m320 -6 c95 -6 98 -8 108 -43 4 -18 5 -36 2 -39 -3
-4 -56 -8 -118 -9 -123 -4 -127 -2 -147 68 -8 26 -6 28 23 32 18 2 41 2 52 0
11 -2 47 -6 80 -9z m2736 -61 c7 -32 13 -60 14 -63 1 -3 5 -19 9 -37 4 -17 14
-34 22 -37 17 -6 54 10 54 23 0 4 21 23 48 41 26 18 59 45 74 58 l28 26 23
-22 c27 -25 75 -29 83 -7 7 18 14 18 37 1 17 -13 15 -20 -36 -116 -37 -70 -76
-125 -125 -178 -40 -42 -85 -95 -102 -118 -34 -48 -119 -108 -245 -174 -79
-42 -102 -49 -192 -61 -93 -11 -104 -11 -129 6 -22 14 -28 15 -36 4 -6 -9 -8
9 -4 53 5 63 8 71 42 100 20 18 72 52 116 76 68 37 84 42 107 34 35 -12 135 3
167 26 13 9 38 38 55 65 24 36 30 54 25 75 -4 15 -7 33 -8 39 -1 7 -10 21 -21
30 -18 17 -54 20 -136 11 -22 -3 -25 3 -36 50 l-12 53 75 49 c42 28 79 50 83
50 4 0 13 -26 20 -57z m-2386 33 c17 -3 47 -8 67 -11 28 -4 41 -14 58 -42 11
-19 19 -37 17 -39 -2 -2 -19 1 -38 6 -34 9 -135 18 -220 19 -39 1 -47 5 -57
26 -25 54 -19 58 66 52 42 -3 91 -8 107 -11z m-954 -95 l1095 -6 29 -24 30
-23 -1243 3 c-1306 4 -1294 4 -1157 45 28 8 65 23 84 33 34 18 35 18 51 -2 17
-20 24 -20 1111 -26z m-61 -114 c289 -1 608 0 710 1 102 2 217 1 255 -2 58 -4
244 -6 320 -4 11 0 47 -3 79 -7 63 -7 116 -8 155 -3 24 3 25 0 39 -92 9 -65
10 -100 3 -111 -7 -12 -5 -23 6 -39 15 -22 15 -22 -13 -16 -44 9 -544 20 -754
16 -339 -6 -534 -5 -685 4 -82 5 -278 8 -435 7 -404 -4 -545 -2 -572 7 -13 5
-102 7 -198 6 -171 -3 -223 4 -233 30 -7 19 -3 184 5 192 4 4 130 9 280 12
150 2 274 6 276 7 2 2 56 1 120 -2 64 -2 353 -5 642 -6z m3360 -38 c14 -25 6
-66 -20 -99 -16 -21 -27 -24 -76 -25 -54 0 -60 2 -72 27 -11 24 -10 32 8 65
17 33 26 39 62 44 77 11 87 10 98 -12z m-4874 -138 c16 4 50 7 75 8 45 1 46 0
43 -26 -2 -16 2 -43 8 -60 l12 -33 81 -2 c44 -1 96 -3 115 -4 19 -1 373 -5
785 -8 413 -3 1044 -9 1403 -12 604 -5 652 -4 652 11 0 12 5 15 18 10 9 -4 60
-13 112 -20 119 -17 202 -34 215 -46 5 -5 22 -9 39 -9 16 0 27 -3 23 -6 -3 -3
-547 -8 -1209 -10 -662 -3 -1232 -6 -1268 -8 -36 -2 -279 -7 -540 -11 -261 -4
-486 -9 -500 -11 -14 -2 -423 -7 -910 -10 -800 -6 -884 -5 -870 9 9 10 79 27
184 47 93 17 172 33 176 35 4 3 32 7 61 11 30 3 91 15 137 25 143 33 236 52
262 53 14 1 30 5 35 8 6 3 37 11 70 17 33 7 83 17 110 23 56 13 472 26 581 18
39 -3 84 -2 100 1z m3622 -278 c-10 -2 -28 -2 -40 0 -13 2 -5 4 17 4 22 1 32
-1 23 -4z m-3023 -379 c258 -7 569 -6 946 2 l236 5 9 -33 c4 -18 9 -169 10
-335 1 -297 1 -301 -20 -313 -26 -14 -67 -78 -102 -156 -14 -33 -32 -72 -39
-89 -7 -16 -28 -66 -45 -110 -17 -44 -35 -84 -39 -90 -9 -12 -13 -23 -51 -171
-28 -110 -34 -149 -45 -274 -13 -161 -22 -199 -40 -170 -14 23 -45 9 -61 -27
-22 -53 -92 -394 -108 -533 -8 -63 -16 -122 -19 -130 -2 -8 -8 -34 -12 -57
l-8 -43 -56 0 c-63 -1 -229 -24 -280 -39 -19 -6 -66 -29 -106 -51 -61 -36 -76
-50 -103 -99 -32 -58 -54 -151 -36 -151 10 0 44 -52 44 -67 0 -10 -142 -43
-185 -43 -30 0 -106 -5 -125 -8 -5 -1 -10 -8 -10 -16 0 -8 -27 -29 -61 -47
-116 -62 -202 -166 -233 -279 l-15 -55 -1 45 c-1 25 -3 65 -5 90 -29 336 -42
546 -51 820 -2 63 -6 634 -9 1268 -3 905 -2 1152 8 1153 35 4 335 14 352 12
11 -1 128 -5 260 -9z m1869 -67 c3 -45 4 -159 1 -254 -3 -94 -5 -183 -5 -197
0 -37 -32 -50 -137 -52 -91 -2 -91 -2 -98 25 -13 47 -20 154 -28 457 l-3 100
131 1 132 2 7 -82z m1922 -171 c65 -30 125 -61 133 -68 26 -22 71 -12 110 26
l36 35 37 -18 37 -17 -25 -36 c-38 -53 -28 -82 31 -94 26 -5 46 -12 46 -16 -1
-5 -1 -23 -1 -40 0 -18 -4 -39 -8 -45 -9 -15 -126 -37 -347 -64 -88 -11 -180
-25 -205 -30 -25 -6 -90 -13 -145 -16 -219 -10 -237 -14 -270 -57 -37 -49 -55
-104 -62 -185 -4 -55 -11 -81 -24 -94 -15 -14 -17 -28 -13 -85 6 -70 17 -106
65 -210 16 -34 29 -69 29 -76 0 -8 14 -41 30 -74 30 -60 39 -115 21 -127 -23
-14 -242 -35 -348 -34 -54 1 -110 -2 -125 -6 -16 -4 -28 -3 -28 2 0 6 -49 10
-115 9 -76 0 -112 -3 -105 -10 6 -6 10 -22 10 -37 0 -21 4 -26 18 -23 33 9 51
-18 62 -91 19 -130 19 -135 -1 -135 -32 0 -70 -23 -85 -51 -8 -17 -14 -58 -14
-102 0 -75 -23 -165 -54 -209 -9 -12 -16 -32 -16 -44 0 -12 -7 -24 -15 -27
-11 -5 -14 4 -15 46 0 29 -2 77 -4 107 -2 30 -7 139 -11 241 -4 102 -7 192 -8
200 -1 8 2 133 6 279 4 146 10 375 12 510 3 135 6 253 8 264 6 30 50 33 378
25 113 -3 150 -1 162 10 10 8 27 11 41 7 16 -4 32 1 49 14 14 11 31 20 37 20
7 0 44 11 83 25 39 14 77 25 86 24 9 -1 28 3 42 9 14 5 48 14 74 18 27 4 64
16 82 27 18 10 50 21 71 24 20 3 37 6 38 7 1 0 4 13 8 29 6 26 5 27 -39 27
-26 0 -56 -5 -68 -12 -12 -6 -55 -13 -95 -14 -63 -3 -73 -1 -68 12 3 9 6 31 6
50 0 27 4 34 19 34 10 0 79 27 152 60 74 33 144 60 156 60 11 0 74 -24 139
-54z m126 29 c21 -4 36 -11 33 -15 -6 -9 -81 6 -104 21 -13 8 -11 9 9 5 14 -2
42 -8 62 -11z m403 -134 l80 -40 -49 0 c-41 -1 -174 17 -184 25 -2 1 4 14 13
28 23 35 47 33 140 -13z m-1063 -43 l-4 -47 -64 -20 c-94 -31 -104 -29 -94 15
8 36 23 54 46 54 6 0 36 11 65 24 30 13 54 23 55 22 0 0 -1 -22 -4 -48z m-220
-70 c-5 -40 -30 -71 -53 -65 -9 2 -27 -2 -40 -9 -13 -7 -51 -13 -84 -13 -67 0
-251 22 -261 31 -3 4 14 9 38 12 142 17 202 27 218 36 10 5 26 7 34 4 9 -4 23
-1 31 6 7 6 35 15 62 20 26 4 51 8 54 9 3 0 4 -14 1 -31z m1549 0 c27 -13 49
-26 49 -30 0 -5 8 -8 17 -8 10 0 37 -7 60 -16 35 -14 49 -15 69 -5 26 12 92
16 81 4 -4 -3 21 -20 56 -38 34 -17 87 -47 118 -66 l57 -34 47 -150 c26 -82
58 -174 71 -203 13 -29 24 -55 24 -58 0 -3 14 -35 30 -71 17 -35 30 -68 30
-72 0 -4 9 -25 19 -47 10 -21 22 -69 26 -105 6 -56 4 -72 -15 -108 -13 -27
-31 -46 -49 -52 -15 -5 -38 -23 -50 -39 -12 -17 -30 -30 -41 -30 -10 0 -25 -6
-32 -13 -29 -28 -103 -42 -228 -42 -141 0 -183 14 -230 77 -28 37 -31 42 -88
148 -22 41 -57 104 -77 140 -69 120 -165 318 -176 367 -7 26 -24 82 -39 123
-40 110 -55 182 -42 207 8 15 7 27 -4 47 -19 37 -18 72 2 80 25 9 78 7 113 -5
24 -8 35 -8 46 1 8 7 15 10 15 7 0 -2 15 -1 33 3 50 12 56 11 108 -12z m-2217
-128 c-5 -121 -19 -864 -19 -1015 0 -230 8 -493 16 -560 4 -33 10 -154 13
-270 4 -115 9 -257 12 -315 19 -348 24 -974 7 -990 -9 -10 -85 -14 -228 -11
l-100 1 1 423 c1 232 3 485 3 562 2 109 3 349 3 580 0 59 -14 510 -17 540 -3
35 -6 713 -3 911 0 39 -2 94 -6 122 -3 29 -3 52 1 52 5 0 48 5 97 10 90 11
175 40 198 68 11 13 14 11 19 -14 3 -16 4 -58 3 -94z m-4056 -6 l52 -7 -5 -86
c-3 -47 -8 -124 -11 -171 -7 -115 -6 -803 2 -880 14 -146 21 -503 18 -1030 -2
-311 -4 -569 -4 -575 0 -5 1 -86 4 -178 l4 -168 -28 6 c-18 4 -31 1 -40 -10
-10 -12 -24 -14 -54 -11 -23 3 -77 8 -121 11 -44 3 -84 10 -90 16 -9 9 -11
194 -18 2184 -2 380 -1 729 1 777 l5 86 71 16 c63 14 96 20 146 24 8 1 39 -1
68 -4z m5882 -13 c0 -5 -9 -12 -19 -16 -29 -9 -34 -38 -17 -92 8 -26 20 -68
26 -93 6 -25 18 -65 26 -90 26 -76 35 -113 45 -175 9 -57 19 -90 69 -215 12
-30 25 -68 30 -83 5 -16 24 -52 43 -80 19 -29 47 -77 63 -107 16 -30 40 -65
54 -77 31 -26 24 -35 -38 -44 -26 -4 -67 -15 -92 -24 -25 -10 -88 -23 -140
-30 -52 -7 -117 -19 -143 -25 -31 -8 -117 -11 -245 -8 -193 3 -198 3 -242 30
-72 43 -128 128 -214 318 -25 58 -62 130 -81 161 -86 140 -125 326 -92 440 9
31 25 63 36 73 27 24 119 45 236 51 55 4 132 13 170 21 39 8 86 16 105 18 65
8 255 37 290 45 55 12 130 13 130 2z m-2314 -203 c-9 -180 -7 -492 4 -663 13
-181 13 -355 1 -355 -6 0 -52 17 -103 38 -77 31 -103 47 -158 102 -87 85 -197
210 -236 269 -70 104 -78 149 -56 298 6 37 13 91 17 120 6 55 24 83 104 160
58 57 187 120 281 138 41 8 84 16 95 18 61 13 59 20 51 -125z m-396 115 c-8
-3 -23 -13 -33 -21 -16 -14 -19 -14 -27 -2 -11 17 10 29 50 29 15 -1 19 -3 10
-6z m3773 -87 c12 -8 39 -19 60 -26 20 -6 37 -15 37 -20 0 -5 9 -11 19 -15 22
-7 61 14 61 32 0 10 6 10 28 1 15 -7 28 -13 30 -14 4 -2 -28 -61 -65 -122 -23
-38 -101 -122 -112 -122 -12 0 -130 295 -131 329 0 2 11 -4 25 -13 14 -9 35
-22 48 -30z m535 -159 c2 -9 -4 -29 -12 -46 -9 -16 -16 -40 -16 -52 0 -22 -4
-38 -31 -124 -20 -66 -58 -140 -88 -171 -15 -16 -45 -60 -66 -99 -21 -38 -61
-106 -90 -150 -29 -44 -62 -99 -74 -122 -26 -52 -146 -173 -198 -201 -21 -12
-56 -23 -78 -26 -22 -3 -85 -12 -140 -21 -55 -9 -143 -20 -195 -26 -117 -13
-629 -4 -685 11 -38 11 -111 17 -455 40 -85 6 -182 15 -215 22 -33 6 -94 15
-135 19 -133 15 -204 26 -230 38 -14 6 -76 15 -139 19 l-114 7 -24 89 c-26
100 -24 105 37 106 161 3 380 21 432 36 12 4 21 -2 27 -19 9 -23 66 -120 83
-142 5 -5 17 -21 28 -34 11 -13 20 -28 20 -32 0 -4 25 -24 55 -45 l55 -36 233
5 c127 2 246 9 262 15 38 14 116 30 230 47 50 8 115 21 145 30 30 9 77 21 105
26 27 5 61 13 75 18 14 5 138 12 275 14 l250 4 66 30 c78 36 122 73 140 116 7
18 28 51 46 75 39 52 56 110 47 160 -4 20 -8 44 -9 52 -2 16 -11 39 -46 121
l-22 49 54 58 c65 70 75 82 127 159 l41 60 113 -32 c75 -22 114 -38 116 -48z
m-4502 -429 c26 -51 67 -118 92 -148 84 -104 236 -262 276 -287 46 -29 186
-83 216 -83 11 0 20 -3 21 -7 0 -5 2 -100 4 -213 2 -113 7 -247 10 -297 l5
-93 -60 0 c-33 0 -77 7 -97 15 -19 8 -52 15 -72 15 -44 0 -103 15 -156 40 -22
11 -67 29 -100 42 -33 13 -75 33 -94 45 -19 13 -40 23 -47 23 -17 0 -97 41
-106 54 -11 15 -28 -12 -28 -42 0 -22 -1 -22 -26 -6 -14 9 -23 23 -20 30 3 8
2 14 -2 14 -4 0 -12 8 -19 19 -9 14 -5 62 18 222 17 116 31 258 33 329 1 80 9
151 21 198 l18 72 49 -91 c117 -217 208 -322 342 -393 63 -34 160 -61 194 -54
37 7 14 32 -53 58 -197 76 -279 148 -401 355 -29 49 -86 172 -91 197 -6 32 3
78 16 78 5 0 31 -42 57 -92z m-209 -180 c-3 -8 -6 -5 -6 6 -1 11 2 17 5 13 3
-3 4 -12 1 -19z m1664 -179 l26 -94 -31 -7 c-17 -3 -31 -6 -32 -5 0 1 -6 36
-12 77 -7 41 -15 87 -18 101 -5 22 -3 26 18 24 20 -1 26 -13 49 -96z m709 71
c6 -11 8 -20 6 -20 -3 0 -10 9 -16 20 -6 11 -8 20 -6 20 3 0 10 -9 16 -20z
m-2392 -758 c40 -62 211 -237 287 -294 33 -24 95 -59 138 -78 42 -18 77 -36
77 -38 0 -3 -33 -2 -72 1 -55 4 -91 14 -148 41 -109 52 -207 123 -230 166 -19
36 -79 90 -99 90 -16 0 -17 6 -9 68 9 67 14 92 21 92 2 0 18 -21 35 -48z m402
-202 c19 -10 60 -23 90 -30 30 -6 80 -20 110 -30 97 -31 225 -65 238 -62 8 2
12 -11 12 -41 l0 -45 -47 5 c-105 9 -180 25 -228 47 -27 13 -85 40 -128 60
-78 35 -165 93 -242 161 l-40 35 100 -41 c55 -23 116 -49 135 -59z m-542 -45
c1 -73 8 -92 42 -110 42 -22 48 -41 39 -122 -8 -76 -32 -137 -52 -130 -20 6
-55 90 -71 171 -20 93 -17 216 4 233 29 24 37 14 38 -42z m-123 -75 c-1 -181
-27 -237 -79 -167 -18 25 -21 43 -22 140 0 152 -1 149 55 145 l46 -3 0 -115z
m1675 25 c0 -19 -4 -35 -9 -35 -13 0 -18 20 -13 47 7 36 22 27 22 -12z m-13
-97 c-3 -8 -6 -5 -6 6 -1 11 2 17 5 13 3 -3 4 -12 1 -19z m-2298 -221 c26 -22
27 -23 11 -50 l-17 -27 -31 39 c-37 46 -38 48 -14 54 9 3 19 5 21 6 2 0 15 -9
30 -22z m3045 -24 c71 -6 67 8 40 -133 -7 -41 -21 -124 -29 -185 -8 -60 -19
-141 -25 -180 -6 -38 -11 -82 -12 -97 l-1 -27 -19 24 c-17 22 -24 23 -86 19
-50 -4 -72 -1 -85 10 -21 16 -18 37 49 426 34 197 28 182 70 164 20 -8 64 -18
98 -21z m-3155 -62 c13 -45 17 -128 7 -139 -13 -12 -76 69 -106 138 l-29 65
37 11 c34 10 39 9 58 -13 12 -14 26 -42 33 -62z m-269 -3 c0 -7 30 -58 66
-113 36 -55 83 -137 105 -183 l40 -83 107 2 c59 1 124 8 145 15 20 7 64 16 97
19 33 3 71 10 85 15 20 8 29 6 45 -10 23 -23 81 -39 138 -38 23 0 49 -5 57
-12 8 -7 31 -18 52 -25 l36 -13 -59 -16 c-32 -10 -72 -23 -89 -30 -112 -50
-451 -92 -780 -98 -209 -4 -315 58 -315 184 0 100 19 178 55 232 47 68 54 77
95 107 71 52 120 71 120 47z m5255 -255 c-4 -151 -10 -230 -17 -234 -7 -4 -46
-8 -89 -8 -56 0 -78 3 -82 13 -8 21 26 416 36 421 45 18 99 33 126 34 l33 1
-7 -227z m-2537 162 c5 -24 7 -55 5 -68 -3 -13 3 -46 12 -73 23 -66 33 -329
15 -373 -7 -17 -16 -28 -22 -25 -5 3 -15 0 -23 -6 -8 -7 -15 -9 -15 -4 0 5 -2
141 -5 302 -4 247 -3 292 9 292 9 0 18 -17 24 -45z m1048 -55 c27 0 27 0 14
-55 -5 -22 -11 -62 -14 -90 -4 -27 -13 -90 -22 -140 -8 -49 -19 -129 -24 -178
-5 -48 -16 -127 -25 -175 -8 -48 -15 -104 -15 -124 0 -28 -4 -36 -14 -32 -8 3
-17 1 -21 -5 -6 -11 -147 -16 -156 -6 -7 6 35 279 77 500 20 105 40 225 45
268 5 43 11 82 14 86 2 5 30 -5 61 -20 31 -16 67 -29 80 -29z m2318 -15 c4
-37 8 -86 21 -335 6 -103 21 -254 38 -373 7 -48 13 -87 12 -87 -61 19 -113 26
-169 22 -40 -3 -66 -1 -63 5 3 5 0 54 -8 108 -7 55 -16 154 -20 220 -3 66 -11
186 -18 267 l-12 146 52 7 c29 3 76 19 105 33 29 15 54 27 55 27 1 0 4 -19 7
-40z m-2577 -67 c-3 -7 -5 -2 -5 12 0 14 2 19 5 13 2 -7 2 -19 0 -25z m-244
-351 c48 -13 84 -26 81 -30 -11 -11 -110 -8 -141 4 -30 11 -45 28 -37 41 3 4
6 8 7 8 1 0 41 -11 90 -23z m1971 -4 c24 -13 15 -18 -61 -34 -77 -16 -136 -5
-141 27 -3 19 2 20 90 19 51 -1 102 -6 112 -12z m-6674 -53 c36 0 36 0 58 -67
11 -38 24 -87 27 -110 6 -41 6 -43 -19 -43 -13 0 -28 -5 -31 -11 -9 -14 -390
-1 -427 14 -31 13 -31 14 -17 77 5 25 12 61 15 80 3 19 7 36 10 39 2 3 48 6
102 9 53 2 111 7 127 12 17 5 50 7 74 5 24 -3 60 -5 81 -5z m3918 -73 c133 -3
176 -7 186 -18 14 -14 67 -161 61 -167 -5 -6 -419 -10 -448 -4 l-28 5 6 66
c10 116 14 129 33 125 9 -2 95 -5 190 -7z m3364 -76 c2 -17 1 -28 -4 -25 -8 5
-12 54 -4 54 2 0 6 -13 8 -29z m-2404 -79 c-7 -39 -16 -62 -25 -62 -10 0 -10
7 1 38 8 20 17 50 21 66 12 54 14 20 3 -42z m71 -153 c36 -6 84 -9 108 -6 49
5 55 -2 15 -21 -58 -28 -113 -26 -179 6 -57 27 -76 51 -28 37 11 -3 49 -11 84
-16z m2524 -4 c48 -2 97 -7 108 -10 14 -5 25 -2 30 6 6 11 9 9 9 -7 0 -21 -29
-53 -67 -73 -46 -24 -249 -6 -283 24 -10 9 -20 29 -22 46 l-5 29 71 -5 c39 -3
110 -8 159 -10z"/>
<path d="M7167 9336 c-28 -10 -55 -66 -41 -87 11 -18 6 -74 -10 -132 -8 -29
-22 -83 -31 -121 -9 -39 -32 -103 -51 -144 -19 -41 -34 -80 -34 -87 0 -6 -11
-35 -25 -63 -14 -29 -25 -58 -25 -64 0 -19 -70 -175 -105 -234 -44 -74 -93
-141 -147 -200 -63 -67 -65 -105 -11 -165 47 -52 75 -63 120 -48 36 12 81 70
89 118 3 14 15 37 28 51 13 14 38 52 56 85 18 33 48 83 66 111 19 28 48 91 65
140 17 49 37 100 44 114 8 14 19 41 24 60 6 19 33 96 61 170 28 74 58 154 66
176 13 35 21 43 47 48 61 12 80 37 85 108 4 61 3 65 -35 111 -26 33 -49 50
-76 58 -43 11 -119 9 -160 -5z m174 -66 c10 -14 21 -42 23 -63 4 -32 0 -44
-26 -72 -16 -19 -36 -35 -44 -35 -8 0 -14 -4 -14 -9 0 -5 -9 -11 -21 -14 -11
-3 -19 -11 -18 -19 3 -14 -88 -296 -101 -313 -4 -5 -13 -28 -20 -50 -13 -43
-16 -50 -80 -195 -47 -105 -79 -165 -122 -225 -70 -98 -106 -159 -101 -171 7
-19 -15 -44 -37 -44 -18 0 -60 44 -60 62 0 5 12 20 28 34 55 49 80 77 93 103
7 14 21 37 30 51 27 41 115 221 129 265 7 22 35 96 62 165 59 150 72 187 93
265 37 137 47 182 49 225 1 37 5 47 26 57 39 20 90 12 111 -17z"/>
<path d="M973 8655 c-15 -10 -20 -25 -20 -55 0 -22 4 -43 9 -46 8 -5 68 -127
68 -139 0 -4 54 -143 147 -380 19 -49 44 -110 55 -135 11 -25 49 -110 83 -190
70 -161 82 -190 136 -305 20 -44 47 -102 59 -130 12 -27 29 -66 38 -85 8 -19
34 -75 57 -125 23 -49 68 -148 100 -220 32 -71 81 -179 110 -240 28 -60 65
-139 80 -175 15 -36 47 -105 70 -155 38 -79 101 -220 140 -310 7 -16 18 -46
25 -65 7 -19 21 -53 31 -75 75 -167 109 -251 109 -267 0 -10 5 -18 10 -18 6 0
10 -7 10 -15 0 -11 49 -123 67 -154 1 -2 14 4 27 13 14 9 35 16 46 16 11 0 38
9 59 20 21 10 41 17 44 13 3 -3 19 4 35 16 17 12 35 21 42 21 10 0 37 16 78
46 2 1 -30 71 -71 156 -41 84 -80 169 -87 188 -7 19 -30 69 -51 110 -33 67
-87 181 -139 295 -17 37 -41 94 -106 250 -14 33 -29 69 -34 80 -5 11 -25 58
-45 105 -20 47 -45 103 -56 126 -10 23 -19 44 -19 46 0 5 -32 74 -166 357 -30
62 -54 115 -54 118 0 2 -9 24 -20 49 -11 24 -34 79 -50 122 -29 77 -68 172
-110 267 -31 70 -119 312 -131 358 -13 52 -79 216 -90 223 -5 3 -9 15 -9 27 0
13 -7 33 -16 45 -8 12 -26 53 -39 90 l-23 67 -64 6 c-34 4 -76 13 -93 22 -16
8 -65 18 -109 21 -43 4 -86 11 -96 16 -11 6 -23 4 -37 -5z m187 -86 c36 -7 76
-18 89 -25 13 -7 36 -10 50 -8 25 5 28 2 50 -61 12 -37 48 -122 78 -189 30
-66 61 -139 67 -161 12 -43 53 -153 92 -248 13 -32 24 -63 24 -69 0 -6 14 -41
31 -77 18 -36 62 -143 99 -236 75 -190 88 -218 171 -390 95 -199 143 -305 234
-525 26 -63 55 -133 65 -155 108 -237 170 -381 170 -393 0 -5 3 -12 8 -14 10
-4 68 -126 98 -206 14 -37 29 -71 34 -77 8 -10 80 -180 80 -189 0 -3 -6 -6
-14 -6 -8 0 -54 -16 -102 -35 -47 -19 -89 -35 -93 -35 -7 0 -62 112 -142 290
-28 63 -55 120 -59 125 -4 6 -13 27 -20 48 -6 21 -50 125 -97 230 -47 106
-102 230 -123 277 -21 47 -66 143 -100 215 -34 71 -82 177 -105 235 -44 107
-69 164 -145 325 -23 50 -52 115 -65 145 -13 30 -46 107 -75 170 -28 63 -55
127 -60 141 -4 14 -24 57 -44 95 -20 39 -36 73 -36 77 0 4 -10 29 -21 55 -12
26 -30 65 -39 87 -39 86 -83 195 -121 295 -22 58 -44 114 -48 125 -5 11 -17
43 -26 70 -10 28 -22 54 -26 60 -17 18 -9 44 14 47 12 2 27 3 32 2 6 -1 39 -8
75 -15z"/>
<path d="M7471 3314 c-36 -15 -61 -64 -61 -116 1 -37 49 -99 78 -100 36 -3 98
15 139 39 43 25 60 62 51 108 -9 49 -147 94 -207 69z m112 -60 c26 -9 47 -22
47 -29 0 -35 -128 -88 -156 -64 -18 15 -18 23 2 64 9 19 25 36 37 38 12 2 22
5 23 6 0 0 21 -6 47 -15z"/>
<path d="M6357 11043 c-4 -3 -7 -18 -7 -33 0 -42 -36 -144 -89 -255 -51 -108
-137 -245 -153 -245 -18 0 -3 -45 16 -48 46 -9 173 187 260 404 44 108 55 162
35 175 -17 10 -53 12 -62 2z"/>
<path d="M4882 10351 c-68 -94 -96 -368 -59 -585 12 -71 37 -104 65 -87 11 7
11 31 -4 142 -15 115 -16 149 -6 244 11 107 32 185 68 254 12 24 14 39 7 50
-18 29 -41 23 -71 -18z"/>
</g>
</svg>
